<?xml version="1.0" standalone="no"?>
<!DOCTYPE svg PUBLIC "-//W3C//DTD SVG 20010904//EN"
 "http://www.w3.org/TR/2001/REC-SVG-20010904/DTD/svg10.dtd">
<svg version="1.0" xmlns="http://www.w3.org/2000/svg"
 width="50.000000pt" height="50.000000pt" viewBox="0 0 50.000000 50.000000"
 preserveAspectRatio="xMidYMid meet">

<g transform="translate(0.000000,50.000000) scale(0.100000,-0.100000)"
fill="#000000" stroke="none">
<path d="M183 435 c-14 -10 -24 -12 -28 -5 -9 14 -41 12 -74 -4 -31 -17 -51
-54 -51 -97 0 -17 -7 -37 -15 -45 -19 -19 -19 -38 -1 -57 18 -18 40 -92 41
-137 0 -47 29 -53 53 -11 l17 31 125 0 125 0 17 -31 c24 -42 53 -36 53 11 1
45 23 119 41 137 18 19 18 38 -1 57 -8 8 -15 29 -15 46 0 42 -23 84 -55 98
-32 15 -62 15 -70 2 -4 -7 -14 -5 -28 5 -12 8 -42 15 -67 15 -25 0 -55 -7 -67
-15z m125 -17 c7 -7 12 -42 12 -85 l0 -73 -70 0 -70 0 0 73 c0 43 5 78 12 85
7 7 33 12 58 12 25 0 51 -5 58 -12z m-150 -84 l3 -82 -31 -4 c-26 -4 -33 -1
-41 19 -5 13 -16 26 -24 29 -9 4 -15 19 -15 41 0 45 39 86 78 81 27 -3 27 -4
30 -84z m267 61 c29 -28 35 -89 10 -99 -8 -3 -19 -16 -24 -29 -8 -20 -15 -23
-40 -19 l-31 4 0 77 c0 43 3 81 7 84 14 15 55 6 78 -18z m-352 -145 c11 -28
13 -29 52 -22 22 4 78 7 125 7 47 0 103 -3 125 -7 39 -7 41 -6 52 22 12 32 40
40 49 15 4 -8 0 -23 -7 -32 -8 -9 -21 -34 -29 -57 l-16 -41 -174 0 -174 0 -16
41 c-8 23 -21 48 -29 57 -7 9 -11 24 -7 32 9 25 37 17 49 -15z m27 -147 c0
-14 -19 -38 -25 -32 -8 8 5 39 16 39 5 0 9 -3 9 -7z m324 -9 c9 -22 -3 -32
-14 -14 -12 19 -12 30 -1 30 5 0 12 -7 15 -16z"/>
</g>
</svg>
